<svg width="27" height="27" viewBox="0 0 27 27" fill="none" xmlns="http://www.w3.org/2000/svg">
<g clip-path="url(#clip0)">
<path d="M13.3333 0C11.1232 0 9.00358 0.877974 7.44078 2.44078C5.87797 4.00358 5 6.1232 5 8.33333C5 16.6667 13.3333 26.6667 13.3333 26.6667C13.3333 26.6667 21.6667 16.6667 21.6667 8.33333C21.6667 6.1232 20.7887 4.00358 19.2259 2.44078C17.6631 0.877974 15.5435 0 13.3333 0V0ZM13.3333 13.4383C12.6629 13.4383 11.9991 13.3063 11.3797 13.0497C10.7604 12.7932 10.1976 12.4172 9.72355 11.9431C9.24951 11.4691 8.87348 10.9063 8.61693 10.2869C8.36038 9.66756 8.22833 9.00373 8.22833 8.33333C8.22833 7.66293 8.36038 6.9991 8.61693 6.37973C8.87348 5.76037 9.24951 5.1976 9.72355 4.72355C10.1976 4.24951 10.7604 3.87348 11.3797 3.61693C11.9991 3.36038 12.6629 3.22833 13.3333 3.22833C14.6873 3.22833 15.9857 3.76618 16.9431 4.72355C17.9005 5.68093 18.4383 6.9794 18.4383 8.33333C18.4383 9.68726 17.9005 10.9857 16.9431 11.9431C15.9857 12.9005 14.6873 13.4383 13.3333 13.4383ZM10.105 8.33333C10.105 7.47668 10.4453 6.65512 11.051 6.04938C11.6568 5.44364 12.4784 5.10333 13.335 5.10333C14.1916 5.10333 15.0132 5.44364 15.619 6.04938C16.2247 6.65512 16.565 7.47668 16.565 8.33333C16.565 9.18998 16.2247 10.0115 15.619 10.6173C15.0132 11.223 14.1916 11.5633 13.335 11.5633C12.4784 11.5633 11.6568 11.223 11.051 10.6173C10.4453 10.0115 10.105 9.18998 10.105 8.33333Z" fill="white"/>
</g>
<defs>
<clipPath id="clip0">
<rect width="26.6667" height="26.6667" fill="white"/>
</clipPath>
</defs>
</svg>
