<svg width="27" height="27" viewBox="0 0 27 27" fill="none" xmlns="http://www.w3.org/2000/svg">
<g clip-path="url(#clip0)">
<path d="M8.33333 10.3335H11.6667V13.6668H8.33333V10.3335ZM13.3333 10.3335H16.6667V13.6668H13.3333V10.3335ZM18.3333 10.3335H21.6667V13.6668H18.3333V10.3335ZM3.33333 20.3335H6.66667V23.6668H3.33333V20.3335ZM8.33333 20.3335H11.6667V23.6668H8.33333V20.3335ZM13.3333 20.3335H16.6667V23.6668H13.3333V20.3335ZM8.33333 15.3335H11.6667V18.6668H8.33333V15.3335ZM13.3333 15.3335H16.6667V18.6668H13.3333V15.3335ZM18.3333 15.3335H21.6667V18.6668H18.3333V15.3335ZM3.33333 15.3335H6.66667V18.6668H3.33333V15.3335ZM21.6667 0.333496V2.00016H18.3333V0.333496H6.66667V2.00016H3.33333V0.333496H0V27.0002H25V0.333496H21.6667ZM23.3333 25.3335H1.66667V7.00016H23.3333V25.3335Z" fill="white"/>
</g>
<defs>
<clipPath id="clip0">
<rect width="26.6667" height="26.6667" fill="white" transform="translate(0 0.333496)"/>
</clipPath>
</defs>
</svg>
