<svg width="30" height="30" viewBox="0 0 30 30" fill="none" xmlns="http://www.w3.org/2000/svg">
<g clip-path="url(#clip0)">
<path d="M26.5833 0.666748H2.75C1.2375 0.666748 0 1.90425 0 3.41675V27.2501C0 28.7626 1.2375 30.0001 2.75 30.0001H14.6667V17.1667H11V13.5001H14.6667V11.6667C14.6667 8.63625 17.1362 6.16675 20.1667 6.16675H23.8333V9.83342H20.1667C19.1583 9.83342 18.3333 10.6584 18.3333 11.6667V13.5001H23.8333L22.9167 17.1667H18.3333V30.0001H26.5833C28.0958 30.0001 29.3333 28.7626 29.3333 27.2501V3.41675C29.3333 1.90425 28.0958 0.666748 26.5833 0.666748Z" fill="white"/>
</g>
<defs>
<clipPath id="clip0">
<rect width="29.3333" height="29.3333" fill="white" transform="translate(0 0.666748)"/>
</clipPath>
</defs>
</svg>
