<svg width="30" height="30" viewBox="0 0 30 30" fill="none" xmlns="http://www.w3.org/2000/svg">
<g clip-path="url(#clip0)">
<path d="M26.9167 0.666748H3.08334C1.57084 0.666748 0.333344 1.90425 0.333344 3.41675V27.2501C0.333344 28.7626 1.57084 30.0001 3.08334 30.0001H26.9167C28.4292 30.0001 29.6667 28.7626 29.6667 27.2501V3.41675C29.6667 1.90425 28.4292 0.666748 26.9167 0.666748ZM11.3333 24.5001H7.66668V11.6667H11.3333V24.5001ZM9.50001 9.83342C9.01378 9.83342 8.54747 9.64026 8.20365 9.29644C7.85983 8.95263 7.66668 8.48631 7.66668 8.00008C7.66668 7.51385 7.85983 7.04754 8.20365 6.70372C8.54747 6.3599 9.01378 6.16675 9.50001 6.16675C9.98624 6.16675 10.4526 6.3599 10.7964 6.70372C11.1402 7.04754 11.3333 7.51385 11.3333 8.00008C11.3333 8.48631 11.1402 8.95263 10.7964 9.29644C10.4526 9.64026 9.98624 9.83342 9.50001 9.83342ZM24.1667 24.5001H20.5V17.1667C20.5 16.6805 20.3069 16.2142 19.963 15.8704C19.6192 15.5266 19.1529 15.3334 18.6667 15.3334C18.1804 15.3334 17.7141 15.5266 17.3703 15.8704C17.0265 16.2142 16.8333 16.6805 16.8333 17.1667V24.5001H13.1667V11.6667H16.8333V13.9419C17.5887 12.9042 18.7473 11.6667 20.0417 11.6667C22.3223 11.6667 24.1667 13.7182 24.1667 16.2501V24.5001Z" fill="white"/>
</g>
<defs>
<clipPath id="clip0">
<rect width="29.3333" height="29.3333" fill="white" transform="translate(0.333344 0.666748)"/>
</clipPath>
</defs>
</svg>
