<svg width="45" height="45" viewBox="0 0 45 45" fill="none" xmlns="http://www.w3.org/2000/svg">
<path d="M22.5 0C18.7704 0 15.1935 1.48158 12.5563 4.11881C9.91908 6.75604 8.4375 10.3329 8.4375 14.0625C8.4375 28.125 22.5 45 22.5 45C22.5 45 36.5625 28.125 36.5625 14.0625C36.5625 10.3329 35.0809 6.75604 32.4437 4.11881C29.8065 1.48158 26.2296 0 22.5 0V0ZM22.5 22.6772C21.3687 22.6772 20.2485 22.4544 19.2033 22.0214C18.1581 21.5885 17.2084 20.954 16.4085 20.154C15.6085 19.3541 14.974 18.4044 14.5411 17.3592C14.1081 16.314 13.8853 15.1938 13.8853 14.0625C13.8853 12.9312 14.1081 11.811 14.5411 10.7658C14.974 9.72062 15.6085 8.77094 16.4085 7.971C17.2084 7.17105 18.1581 6.5365 19.2033 6.10357C20.2485 5.67064 21.3687 5.44781 22.5 5.44781C24.7848 5.44781 26.9759 6.35543 28.5915 7.971C30.2071 9.58656 31.1147 11.7777 31.1147 14.0625C31.1147 16.3473 30.2071 18.5384 28.5915 20.154C26.9759 21.7696 24.7848 22.6772 22.5 22.6772ZM17.0522 14.0625C17.0522 12.6169 17.6264 11.2305 18.6486 10.2083C19.6708 9.18614 21.0572 8.61188 22.5028 8.61188C23.9484 8.61188 25.3348 9.18614 26.357 10.2083C27.3792 11.2305 27.9534 12.6169 27.9534 14.0625C27.9534 15.5081 27.3792 16.8945 26.357 17.9167C25.3348 18.9389 23.9484 19.5131 22.5028 19.5131C21.0572 19.5131 19.6708 18.9389 18.6486 17.9167C17.6264 16.8945 17.0522 15.5081 17.0522 14.0625Z" fill="white"/>
</svg>
