<svg width="45" height="45" viewBox="0 0 45 45" fill="none" xmlns="http://www.w3.org/2000/svg">
<g clip-path="url(#clip0)">
<path d="M43.6056 38.2937L32.9462 29.2291C31.8437 28.2362 30.6653 27.7834 29.7146 27.8256C32.5436 24.5084 33.979 20.2249 33.7199 15.8729C33.4608 11.5209 31.5274 7.43796 28.3249 4.47975C25.1223 1.52154 20.8992 -0.0824139 16.5403 0.00398944C12.1814 0.0903928 8.02508 1.86044 4.94227 4.94325C1.85947 8.02605 0.0894162 12.1824 0.00301287 16.5412C-0.0833905 20.9001 1.52056 25.1233 4.47877 28.3259C7.43699 31.5284 11.5199 33.4618 15.8719 33.7209C20.224 33.9799 24.5074 32.5446 27.8246 29.7156C27.7796 30.6662 28.2353 31.8447 29.2281 32.9472L38.2928 43.6066C39.8453 45.3306 42.3793 45.4769 43.9262 43.93C45.4731 42.3831 45.3268 39.8462 43.6028 38.2966L43.6056 38.2937ZM16.8756 28.1237C13.8919 28.1237 11.0304 26.9385 8.92063 24.8287C6.81085 22.7189 5.62558 19.8574 5.62558 16.8737C5.62558 13.8901 6.81085 11.0286 8.92063 8.9188C11.0304 6.80901 13.8919 5.62375 16.8756 5.62375C19.8593 5.62375 22.7208 6.80901 24.8305 8.9188C26.9403 11.0286 28.1256 13.8901 28.1256 16.8737C28.1256 19.8574 26.9403 22.7189 24.8305 24.8287C22.7208 26.9385 19.8593 28.1237 16.8756 28.1237Z" fill="white"/>
</g>
<defs>
<clipPath id="clip0">
<rect width="45" height="45" fill="white"/>
</clipPath>
</defs>
</svg>
