<svg width="27" height="27" viewBox="0 0 27 27" fill="none" xmlns="http://www.w3.org/2000/svg">
<g clip-path="url(#clip0)">
<path d="M18.3333 16.6667C16.6667 18.3334 16.6667 20.0001 15 20.0001C13.3333 20.0001 11.6667 18.3334 10 16.6667C8.33333 15.0001 6.66667 13.3334 6.66667 11.6667C6.66667 10.0001 8.33333 10.0001 10 8.33341C11.6667 6.66675 6.66667 1.66675 5 1.66675C3.33333 1.66675 0 6.66675 0 6.66675C0 10.0001 3.425 16.7584 6.66667 20.0001C9.90833 23.2417 16.6667 26.6667 20 26.6667C20 26.6667 25 23.3334 25 21.6667C25 20.0001 20 15.0001 18.3333 16.6667Z" fill="white"/>
</g>
<defs>
<clipPath id="clip0">
<rect width="26.6667" height="26.6667" fill="white"/>
</clipPath>
</defs>
</svg>
