<svg width="29" height="30" viewBox="0 0 29 30" fill="none" xmlns="http://www.w3.org/2000/svg">
<g clip-path="url(#clip0)">
<path d="M28.3333 7.15305C27.2864 7.64161 26.1747 7.96059 25.0362 8.09905C26.2354 7.34616 27.1332 6.16327 27.5632 4.76972C26.4354 5.46985 25.2022 5.96395 23.9162 6.23088C23.3782 5.63093 22.7282 5.15311 22.0066 4.82703C21.2851 4.50095 20.5073 4.33356 19.7215 4.33522C18.8559 4.33427 18.0013 4.53842 17.2217 4.93238C16.4421 5.32634 15.7576 5.89992 15.2195 6.61019C14.6814 7.32045 14.3036 8.14902 14.1144 9.03388C13.9251 9.91874 13.9294 10.837 14.1267 11.7199C11.8425 11.5996 9.60789 10.9775 7.56803 9.89384C5.52816 8.81018 3.72863 7.28923 2.28625 5.42972C1.5515 6.75401 1.32619 8.3219 1.6562 9.81412C1.98621 11.3063 2.84671 12.6107 4.0625 13.4615C3.15014 13.4307 2.25776 13.1737 1.4585 12.7117V12.7869C1.45818 14.1769 1.91711 15.5242 2.75735 16.5999C3.5976 17.6757 4.76736 18.4136 6.068 18.6884C5.22068 18.9303 4.33177 18.9661 3.46925 18.7929C3.83737 19.9879 4.55204 21.033 5.51375 21.7826C6.47546 22.5321 7.63634 22.9488 8.83475 22.9747C7.64262 23.9558 6.27745 24.6809 4.81742 25.1084C3.35739 25.536 1.8312 25.6576 0.326248 25.4662C2.95365 27.2358 6.0122 28.1747 9.13575 28.1704C19.7005 28.1704 25.4825 18.9982 25.4825 11.0452C25.4825 10.7812 25.4773 10.5245 25.4668 10.266C26.5924 9.41785 27.5629 8.36393 28.3315 7.15488L28.3333 7.15305Z" fill="white"/>
</g>
<defs>
<clipPath id="clip0">
<rect width="28" height="29.3333" fill="white" transform="translate(0.333328 0.666748)"/>
</clipPath>
</defs>
</svg>
